<svg width="70" height="70" viewBox="0 0 70 70" fill="none" xmlns="http://www.w3.org/2000/svg">
<path fill-rule="evenodd" clip-rule="evenodd" d="M8 0C3.58172 0 0 3.58172 0 8V62C0 66.4183 3.58172 70 8 70H62C66.4183 70 70 66.4183 70 62V8C70 3.58172 66.4183 0 62 0H8ZM57.9151 46.8243C58.8654 36.9161 56.3231 28.3096 51.1752 20.6795C51.1626 20.6543 51.1415 20.6359 51.1159 20.625C48.2107 19.2815 45.0957 18.2918 41.8383 17.7249C41.8092 17.7194 41.779 17.7233 41.7522 17.7361C41.7254 17.7489 41.7033 17.7699 41.689 17.7962C41.2885 18.5141 40.8446 19.4509 40.5335 20.1873C37.03 19.6589 33.5446 19.6589 30.113 20.1873C29.8018 19.4349 29.342 18.5141 28.9397 17.7962C28.909 17.7433 28.8497 17.7158 28.7905 17.7249C25.5348 18.2901 22.4199 19.2798 19.5123 20.625C19.4873 20.6359 19.4656 20.6543 19.4513 20.6778C13.5422 29.5744 11.9235 38.2522 12.7177 46.8226C12.7212 46.8645 12.7445 46.9047 12.777 46.93C16.6754 49.8157 20.4524 51.567 24.1588 52.7283C24.218 52.7467 24.2807 52.7243 24.3189 52.6755C25.1952 51.4687 25.9769 50.1965 26.647 48.8587C26.6868 48.78 26.6487 48.6876 26.5683 48.6565C25.3286 48.1827 24.148 47.6048 23.0124 46.9484C22.9224 46.8955 22.9156 46.7662 22.9982 46.7043C23.2369 46.5238 23.4763 46.3361 23.7041 46.1465C23.7457 46.1121 23.8032 46.1045 23.8517 46.1264C31.3111 49.5584 39.3871 49.5584 46.7594 46.1264C46.8079 46.1028 46.8654 46.1098 46.9081 46.1447C47.1366 46.3343 47.3753 46.5238 47.6163 46.7043C47.699 46.7662 47.6932 46.8955 47.6038 46.9484C46.4683 47.6175 45.2877 48.1827 44.0461 48.6542C43.9653 48.6853 43.9293 48.78 43.9686 48.8587C44.6535 50.1948 45.4353 51.467 46.2957 52.6738C46.3133 52.6986 46.3383 52.7171 46.367 52.727C46.3957 52.7367 46.4268 52.7372 46.4558 52.7283C50.1798 51.567 53.9568 49.8157 57.8552 46.93C57.8894 46.9047 57.911 46.8662 57.9151 46.8243ZM27.7609 32.3446C30.0611 32.3446 31.8934 34.4411 31.8576 36.9748C31.8576 39.5262 30.0428 41.6043 27.7609 41.6043C25.5154 41.6043 23.6648 39.5262 23.6648 36.9748C23.6648 34.4228 25.4795 32.3446 27.7609 32.3446ZM42.9072 32.3446C45.2068 32.3446 47.0392 34.4411 47.0033 36.9748C47.0033 39.5262 45.2068 41.6043 42.9072 41.6043C40.6611 41.6043 38.8105 39.5262 38.8105 36.9748C38.8105 34.4228 40.6252 32.3446 42.9072 32.3446Z" fill="#1D3AA0"/>
</svg>
