<svg width="48" height="48" viewBox="0 0 48 48" fill="none" xmlns="http://www.w3.org/2000/svg">
<path d="M21.6 31.2H21.4776C20.8735 31.2 20.2942 30.96 19.8671 30.5329C19.44 30.1058 19.2 29.5265 19.2 28.9224C19.2 28.2859 18.9471 27.6754 18.4971 27.2253C18.047 26.7753 17.4365 26.5224 16.8 26.5224C16.1635 26.5224 15.553 26.7753 15.1029 27.2253C14.6529 27.6754 14.4 28.2859 14.4 28.9224C14.4 30.7995 15.1457 32.5997 16.473 33.927C17.8003 35.2543 19.6005 36 21.4776 36H21.6V38.4C21.6 39.0365 21.8529 39.647 22.3029 40.0971C22.753 40.5471 23.3635 40.8 24 40.8C24.6365 40.8 25.247 40.5471 25.6971 40.0971C26.1471 39.647 26.4 39.0365 26.4 38.4V36C28.3096 36 30.1409 35.2414 31.4912 33.8912C32.8414 32.5409 33.6 30.7096 33.6 28.8C33.6 26.8904 32.8414 25.0591 31.4912 23.7088C30.1409 22.3586 28.3096 21.6 26.4 21.6V16.8H26.4528C27.7488 16.8 28.8 17.8512 28.8 19.1472C28.8 19.7837 29.0529 20.3942 29.5029 20.8443C29.953 21.2943 30.5635 21.5472 31.2 21.5472C31.8365 21.5472 32.447 21.2943 32.8971 20.8443C33.3471 20.3942 33.6 19.7837 33.6 19.1472C33.6 17.2516 32.847 15.4337 31.5066 14.0934C30.1663 12.753 28.3484 12 26.4528 12H26.4V9.6C26.4 8.96348 26.1471 8.35303 25.6971 7.90294C25.247 7.45286 24.6365 7.2 24 7.2C23.3635 7.2 22.753 7.45286 22.3029 7.90294C21.8529 8.35303 21.6 8.96348 21.6 9.6V12C20.6545 12 19.7182 12.1862 18.8447 12.5481C17.9711 12.9099 17.1774 13.4403 16.5088 14.1088C15.8403 14.7774 15.3099 15.5711 14.9481 16.4447C14.5862 17.3182 14.4 18.2545 14.4 19.2C14.4 20.1455 14.5862 21.0818 14.9481 21.9553C15.3099 22.8289 15.8403 23.6226 16.5088 24.2912C17.1774 24.9598 17.9711 25.4901 18.8447 25.8519C19.7182 26.2138 20.6545 26.4 21.6 26.4V31.2ZM26.4 31.2V26.4C27.0365 26.4 27.647 26.6529 28.0971 27.1029C28.5471 27.553 28.8 28.1635 28.8 28.8C28.8 29.4365 28.5471 30.047 28.0971 30.4971C27.647 30.9471 27.0365 31.2 26.4 31.2ZM21.6 16.8V21.6C20.9635 21.6 20.353 21.3471 19.9029 20.8971C19.4529 20.447 19.2 19.8365 19.2 19.2C19.2 18.5635 19.4529 17.953 19.9029 17.5029C20.353 17.0529 20.9635 16.8 21.6 16.8ZM24 48C10.7448 48 0 37.2552 0 24C0 10.7448 10.7448 0 24 0C37.2552 0 48 10.7448 48 24C48 37.2552 37.2552 48 24 48Z" fill="#1C1C1C"/>
</svg>
