<svg width="64" height="64" viewBox="0 0 64 64" fill="none" xmlns="http://www.w3.org/2000/svg">
<path id="Vector" d="M28.8 41.6H28.6368C27.8314 41.6 27.059 41.2801 26.4895 40.7105C25.9199 40.141 25.6 39.3686 25.6 38.5632C25.6 37.7145 25.2629 36.9006 24.6627 36.3005C24.0626 35.7003 23.2487 35.3632 22.4 35.3632C21.5513 35.3632 20.7374 35.7003 20.1373 36.3005C19.5371 36.9006 19.2 37.7145 19.2 38.5632C19.2 41.066 20.1942 43.4663 21.964 45.236C23.7337 47.0058 26.134 48 28.6368 48H28.8V51.2C28.8 52.0487 29.1371 52.8626 29.7373 53.4627C30.3374 54.0629 31.1513 54.4 32 54.4C32.8487 54.4 33.6626 54.0629 34.2627 53.4627C34.8629 52.8626 35.2 52.0487 35.2 51.2V48C37.7461 48 40.1879 46.9886 41.9882 45.1882C43.7886 43.3879 44.8 40.9461 44.8 38.4C44.8 35.8539 43.7886 33.4121 41.9882 31.6118C40.1879 29.8114 37.7461 28.8 35.2 28.8V22.4H35.2704C36.9984 22.4 38.4 23.8016 38.4 25.5296C38.4 26.3783 38.7371 27.1922 39.3373 27.7923C39.9374 28.3925 40.7513 28.7296 41.6 28.7296C42.4487 28.7296 43.2626 28.3925 43.8627 27.7923C44.4629 27.1922 44.8 26.3783 44.8 25.5296C44.8 23.0022 43.796 20.5783 42.0088 18.7912C40.2217 17.004 37.7978 16 35.2704 16H35.2V12.8C35.2 11.9513 34.8629 11.1374 34.2627 10.5373C33.6626 9.93714 32.8487 9.6 32 9.6C31.1513 9.6 30.3374 9.93714 29.7373 10.5373C29.1371 11.1374 28.8 11.9513 28.8 12.8V16C27.5393 16 26.291 16.2483 25.1262 16.7308C23.9615 17.2132 22.9032 17.9203 22.0118 18.8118C21.1203 19.7032 20.4132 20.7615 19.9308 21.9262C19.4483 23.091 19.2 24.3393 19.2 25.6C19.2 26.8607 19.4483 28.109 19.9308 29.2738C20.4132 30.4385 21.1203 31.4968 22.0118 32.3882C22.9032 33.2797 23.9615 33.9868 25.1262 34.4692C26.291 34.9517 27.5393 35.2 28.8 35.2V41.6ZM35.2 41.6V35.2C36.0487 35.2 36.8626 35.5371 37.4627 36.1373C38.0629 36.7374 38.4 37.5513 38.4 38.4C38.4 39.2487 38.0629 40.0626 37.4627 40.6627C36.8626 41.2629 36.0487 41.6 35.2 41.6ZM28.8 22.4V28.8C27.9513 28.8 27.1374 28.4629 26.5373 27.8627C25.9371 27.2626 25.6 26.4487 25.6 25.6C25.6 24.7513 25.9371 23.9374 26.5373 23.3373C27.1374 22.7371 27.9513 22.4 28.8 22.4ZM32 64C14.3264 64 0 49.6736 0 32C0 14.3264 14.3264 0 32 0C49.6736 0 64 14.3264 64 32C64 49.6736 49.6736 64 32 64Z" fill="#E08E45"/>
</svg>
