<svg width="48" height="49" viewBox="0 0 48 49" fill="none" xmlns="http://www.w3.org/2000/svg">
<path d="M21.6 31.7H21.4776C20.8735 31.7 20.2942 31.46 19.8671 31.0329C19.44 30.6058 19.2 30.0265 19.2 29.4224C19.2 28.7859 18.9471 28.1754 18.4971 27.7253C18.047 27.2753 17.4365 27.0224 16.8 27.0224C16.1635 27.0224 15.553 27.2753 15.1029 27.7253C14.6529 28.1754 14.4 28.7859 14.4 29.4224C14.4 31.2995 15.1457 33.0997 16.473 34.427C17.8003 35.7543 19.6005 36.5 21.4776 36.5H21.6V38.9C21.6 39.5365 21.8529 40.147 22.3029 40.5971C22.753 41.0471 23.3635 41.3 24 41.3C24.6365 41.3 25.247 41.0471 25.6971 40.5971C26.1471 40.147 26.4 39.5365 26.4 38.9V36.5C28.3096 36.5 30.1409 35.7414 31.4912 34.3912C32.8414 33.0409 33.6 31.2096 33.6 29.3C33.6 27.3904 32.8414 25.5591 31.4912 24.2088C30.1409 22.8586 28.3096 22.1 26.4 22.1V17.3H26.4528C27.7488 17.3 28.8 18.3512 28.8 19.6472C28.8 20.2837 29.0529 20.8942 29.5029 21.3443C29.953 21.7943 30.5635 22.0472 31.2 22.0472C31.8365 22.0472 32.447 21.7943 32.8971 21.3443C33.3471 20.8942 33.6 20.2837 33.6 19.6472C33.6 17.7516 32.847 15.9337 31.5066 14.5934C30.1663 13.253 28.3484 12.5 26.4528 12.5H26.4V10.1C26.4 9.46348 26.1471 8.85303 25.6971 8.40294C25.247 7.95286 24.6365 7.7 24 7.7C23.3635 7.7 22.753 7.95286 22.3029 8.40294C21.8529 8.85303 21.6 9.46348 21.6 10.1V12.5C20.6545 12.5 19.7182 12.6862 18.8447 13.0481C17.9711 13.4099 17.1774 13.9403 16.5088 14.6088C15.8403 15.2774 15.3099 16.0711 14.9481 16.9447C14.5862 17.8182 14.4 18.7545 14.4 19.7C14.4 20.6455 14.5862 21.5818 14.9481 22.4553C15.3099 23.3289 15.8403 24.1226 16.5088 24.7912C17.1774 25.4598 17.9711 25.9901 18.8447 26.3519C19.7182 26.7138 20.6545 26.9 21.6 26.9V31.7ZM26.4 31.7V26.9C27.0365 26.9 27.647 27.1529 28.0971 27.6029C28.5471 28.053 28.8 28.6635 28.8 29.3C28.8 29.9365 28.5471 30.547 28.0971 30.9971C27.647 31.4471 27.0365 31.7 26.4 31.7ZM21.6 17.3V22.1C20.9635 22.1 20.353 21.8471 19.9029 21.3971C19.4529 20.947 19.2 20.3365 19.2 19.7C19.2 19.0635 19.4529 18.453 19.9029 18.0029C20.353 17.5529 20.9635 17.3 21.6 17.3ZM24 48.5C10.7448 48.5 0 37.7552 0 24.5C0 11.2448 10.7448 0.5 24 0.5C37.2552 0.5 48 11.2448 48 24.5C48 37.7552 37.2552 48.5 24 48.5Z" fill="#E08E45"/>
</svg>
