<svg width="108" height="108" viewBox="0 0 108 108" fill="none" xmlns="http://www.w3.org/2000/svg">
<rect x="3" y="3" width="102" height="102" rx="9" fill="white" fill-opacity="0.25"/>
<rect x="3" y="3" width="102" height="102" rx="9" stroke="#1D3AA0" stroke-width="6"/>
<path d="M45.09 65.88V50.22H53.46C56.64 50.22 59.01 49.38 60.57 47.7C62.13 45.96 62.91 43.86 62.91 41.4C62.91 39.66 62.55 38.16 61.83 36.9C61.17 35.58 60.18 34.56 58.86 33.84C57.6 33.06 56.07 32.67 54.27 32.67C52.35 32.67 50.73 33.09 49.41 33.93C48.09 34.71 47.07 35.76 46.35 37.08C45.63 38.4 45.27 39.9 45.27 41.58H31.5C31.5 37.62 32.37 34.05 34.11 30.87C35.91 27.63 38.55 25.05 42.03 23.13C45.51 21.21 49.71 20.25 54.63 20.25C59.19 20.25 63.12 21.12 66.42 22.86C69.72 24.54 72.27 26.88 74.07 29.88C75.87 32.88 76.77 36.33 76.77 40.23V41.31C76.77 45.15 75.84 48.54 73.98 51.48C72.18 54.36 69.54 56.64 66.06 58.32C62.58 59.94 58.35 60.81 53.37 60.93L59.58 55.98L59.4 65.88H45.09ZM44.01 87.93V73.44H60.39V87.93H44.01Z" fill="#1D3AA0"/>
</svg>
