<svg width="100" height="100" viewBox="0 0 100 100" fill="none" xmlns="http://www.w3.org/2000/svg">
<path d="M84.6682 37.0405L43.5968 78.1119C42.2019 79.5068 39.9408 79.5068 38.5459 78.1117L15.3316 54.8974C13.937 53.5027 13.937 51.2414 15.3316 49.8467L20.3823 44.7961C21.7772 43.4014 24.0385 43.4014 25.4332 44.7961L41.0714 60.4342L74.5667 26.9391C75.9615 25.5443 78.2229 25.5445 79.6176 26.9391L84.6682 31.9898C86.0629 33.3844 86.0629 35.6458 84.6682 37.0405Z" fill="#F5F5F5"/>
<path d="M41.0714 58.3128L26.4939 43.7353C24.5134 41.7548 21.3024 41.755 19.3218 43.7352L19.3217 43.7353L14.271 48.786C12.2906 50.7664 12.2906 53.9776 14.271 55.958L37.4852 79.1722C37.4853 79.1722 37.4853 79.1722 37.4853 79.1723C39.466 81.1532 42.6769 81.1531 44.6575 79.1725L85.729 38.1011C87.7094 36.1206 87.7094 32.9095 85.729 30.9291L80.6783 25.8784C78.6979 23.898 75.4868 23.8977 73.5061 25.8784L41.0714 58.3128ZM89.2857 98.5H10.7143C5.6253 98.5 1.5 94.3747 1.5 89.2857V10.7143C1.5 5.6253 5.6253 1.5 10.7143 1.5H89.2857C94.3747 1.5 98.5 5.6253 98.5 10.7143V89.2857C98.5 94.3747 94.3747 98.5 89.2857 98.5Z" fill="#99EDCC" stroke="#1D3AA0" stroke-width="3"/>
</svg>
