<svg width="100" height="100" viewBox="0 0 100 100" fill="none" xmlns="http://www.w3.org/2000/svg">
<path d="M89.2857 98.5H10.7143C5.6253 98.5 1.5 94.3747 1.5 89.2857V10.7143C1.5 5.6253 5.6253 1.5 10.7143 1.5H89.2857C94.3747 1.5 98.5 5.6253 98.5 10.7143V89.2857C98.5 94.3747 94.3747 98.5 89.2857 98.5Z" fill="#E08E45" stroke="#1D3AA0" stroke-width="3"/>
<path d="M38.7575 50.0547C38.7877 50.023 38.787 49.973 38.7561 49.9421L33.7449 44.9353L22.0766 33.262C20.5153 31.7 20.5153 29.1683 22.0766 27.6064L27.6004 22.0802C29.1626 20.5173 31.6962 20.5173 33.2584 22.0802L44.9328 33.7595L49.7401 38.5625V38.5625C49.8837 38.706 50.1163 38.706 50.2599 38.5625L55.0672 33.7595L66.7416 22.0802C68.3038 20.5173 70.8374 20.5173 72.3996 22.0802L77.9234 27.6064C79.4847 29.1683 79.4847 31.7 77.9234 33.262L66.2551 44.9353L61.3649 49.8211C61.2665 49.9194 61.2665 50.0788 61.3648 50.1772V50.1772L65.0064 53.8153L77.9234 66.738C79.4847 68.3 79.4847 70.8317 77.9234 72.3936L72.3996 77.9198C70.8374 79.4827 68.3038 79.4827 66.7416 77.9198L53.824 64.9966L50.1055 61.2814C50.046 61.222 49.9493 61.2233 49.8915 61.2843V61.2843L46.176 64.9966L33.2584 77.9197C31.6962 79.4827 29.1626 79.4827 27.6004 77.9198L22.0766 72.3936C20.5153 70.8317 20.5153 68.3 22.0766 66.738L34.9936 53.8153L38.7575 50.0547V50.0547Z" fill="#F5F5F5" stroke="#1D3AA0" stroke-width="3" stroke-miterlimit="10" stroke-linecap="round" stroke-linejoin="round"/>
</svg>
