<svg width="39" height="34" viewBox="0 0 39 34" fill="none" xmlns="http://www.w3.org/2000/svg">
<path d="M2.4375 14.5732H31.3463L22.4981 3.98554C22.0844 3.48963 21.8853 2.85029 21.9448 2.20817C22.0042 1.56605 22.3172 0.973748 22.815 0.561562C23.3128 0.149377 23.9545 -0.048927 24.5991 0.0102756C25.2436 0.0694782 25.8381 0.381338 26.2519 0.877249L38.4394 15.4474C38.5214 15.5633 38.5947 15.685 38.6588 15.8116C38.6588 15.933 38.6587 16.0059 38.8294 16.1273C38.9399 16.4057 38.9977 16.7021 39 17.0015C38.9977 17.3009 38.9399 17.5973 38.8294 17.8757C38.8294 17.9971 38.8294 18.07 38.6588 18.1914C38.5947 18.318 38.5214 18.4398 38.4394 18.5557L26.2519 33.1258C26.0227 33.3999 25.7357 33.6204 25.4113 33.7714C25.0869 33.9225 24.7331 34.0006 24.375 34C23.8055 34.0011 23.2535 33.8035 22.815 33.4415C22.5682 33.2376 22.3642 32.9872 22.2146 32.7047C22.0651 32.4222 21.9729 32.113 21.9435 31.795C21.9141 31.4769 21.9479 31.1562 22.0431 30.8512C22.1382 30.5462 22.2929 30.2629 22.4981 30.0175L31.3463 19.4299H2.4375C1.79103 19.4299 1.17105 19.174 0.713925 18.7186C0.256805 18.2632 0 17.6456 0 17.0015C0 16.3575 0.256805 15.7398 0.713925 15.2844C1.17105 14.829 1.79103 14.5732 2.4375 14.5732Z" fill="#F5F5F5"/>
</svg>
