<svg width="39" height="34" viewBox="0 0 39 34" fill="none" xmlns="http://www.w3.org/2000/svg">
<path d="M36.5625 14.5732H7.65375L16.5019 3.98554C16.9156 3.48963 17.1147 2.85029 17.0552 2.20817C16.9958 1.56605 16.6828 0.973748 16.185 0.561562C15.6872 0.149377 15.0455 -0.048927 14.4009 0.0102756C13.7564 0.0694782 13.1619 0.381338 12.7481 0.877249L0.560625 15.4474C0.478629 15.5633 0.405306 15.685 0.34125 15.8116C0.34125 15.933 0.34125 16.0059 0.170625 16.1273C0.060142 16.4057 0.00229398 16.7021 0 17.0015C0.00229398 17.3009 0.060142 17.5973 0.170625 17.8757C0.170625 17.9971 0.170625 18.07 0.34125 18.1914C0.405306 18.318 0.478629 18.4398 0.560625 18.5557L12.7481 33.1258C12.9773 33.3999 13.2643 33.6204 13.5887 33.7714C13.9131 33.9225 14.2669 34.0006 14.625 34C15.1945 34.0011 15.7465 33.8035 16.185 33.4415C16.4318 33.2376 16.6358 32.9872 16.7854 32.7047C16.9349 32.4222 17.0271 32.113 17.0565 31.795C17.0859 31.4769 17.0521 31.1562 16.9569 30.8512C16.8618 30.5462 16.7071 30.2629 16.5019 30.0175L7.65375 19.4299H36.5625C37.209 19.4299 37.829 19.174 38.2861 18.7186C38.7432 18.2632 39 17.6456 39 17.0015C39 16.3575 38.7432 15.7398 38.2861 15.2844C37.829 14.829 37.209 14.5732 36.5625 14.5732Z" fill="#F5F5F5"/>
</svg>
