<svg width="70" height="70" viewBox="0 0 70 70" fill="none" xmlns="http://www.w3.org/2000/svg">
<path fill-rule="evenodd" clip-rule="evenodd" d="M62.4403 2.08867C65.4052 3.25977 67.7072 6.57267 68.5387 10.7968C69.554 18.8035 70.0332 26.9072 69.9982 35.0486C70.0332 43.1367 69.5431 51.2279 68.5387 59.1845C67.7072 63.4118 65.4052 66.7215 62.4403 67.9114C56.9261 70 35.0334 70 35.0334 70C35.0334 70 13.0708 70 7.61127 67.9114C4.66161 66.7215 2.34872 63.4086 1.52596 59.1845C0.501898 51.2279 -0.0101334 43.1367 0.00080742 35.0486C-0.0232625 26.9072 0.490957 18.8035 1.52596 10.7968C2.34872 6.57267 4.66161 3.2629 7.61127 2.08867C13.1276 -0.0500009 35.0334 0.000100357 35.0334 0.000100357C35.0334 0.000100357 56.9808 9.98803e-05 62.4403 2.08867ZM26.5002 49.7225L52.0002 35.0001L26.5002 20.2777L26.5002 49.7225Z" fill="#1D3AA0"/>
</svg>
